Coordinates
version=1
nRows=24
nColumns=24
inDegrees=yes

Units are S.I. units (second, meters, Newtons, ...)
Angles are in degrees.

endheader
time	pelvis_tilt	pelvis_list	pelvis_rotation	pelvis_tx	pelvis_ty	pelvis_tz	hip_flexion_r	hip_adduction_r	hip_rotation_r	knee_angle_r	ankle_angle_r	subtalar_angle_r	mtp_angle_r	hip_flexion_l	hip_adduction_l	hip_rotation_l	knee_angle_l	ankle_angle_l	subtalar_angle_l	mtp_angle_l	lumbar_extension	lumbar_bending	lumbar_rotation
      5.95000000	     -1.23155514	      2.62598864	     -2.79955755	     -0.45605173	      0.90781592	      0.15908060	      2.54435854	     -4.60660050	     -4.68806660	    -60.94573547	     -7.25011748	     -4.52871749	      0.00000000	     26.64847812	      6.81596893	     -3.60482503	    -40.27042908	     19.11448358	    -17.20847154	      0.00000000	    -24.92082872	     -8.12091208	      2.50762870
      5.96000000	     -1.13750113	      2.81858477	     -2.86263309	     -0.44330137	      0.91150872	      0.15816762	      4.71281614	     -5.15525819	     -4.82697464	    -62.99716985	     -7.02875580	     -6.83529062	      0.00000000	     25.05261232	      7.15883836	     -3.53793286	    -39.12779061	     19.39350126	    -17.02128058	      0.00000000	    -25.12621305	     -8.14026938	      1.93858126
      5.97000000	     -1.06262566	      2.75440862	     -3.04372680	     -0.43075676	      0.91556136	      0.15747669	      6.83969545	     -5.38672760	     -4.88940126	    -64.49660153	     -6.68011738	     -8.99754533	      0.00000000	     23.40779974	      7.18008005	     -3.55343020	    -37.84420434	     19.56360318	    -16.96244241	      0.00000000	    -25.31862976	     -7.89705345	      1.61003392
      5.98000000	     -0.98682206	      2.60356748	     -3.13977008	     -0.41832441	      0.91980539	      0.15668945	      8.86775182	     -5.52731945	     -5.06034463	    -65.53563313	     -5.98478219	    -10.51674548	      0.00000000	     21.70450508	      7.15128203	     -3.41163140	    -36.45458271	     19.68405513	    -16.75413679	      0.00000000	    -25.54975404	     -7.53387790	      1.20765704
      5.99000000	     -0.91183919	      2.30782238	     -3.24584963	     -0.40602890	      0.92423479	      0.15595525	     10.79659275	     -5.47317833	     -5.26561933	    -66.07342958	     -5.27044924	    -11.73987634	      0.00000000	     19.94742179	      6.96837667	     -3.24941006	    -34.94295432	     19.67854842	    -16.64529195	      0.00000000	    -25.79168165	     -7.00358211	      0.92611565
      6.00000000	     -0.92608792	      1.92450205	     -3.32803764	     -0.39385780	      0.92853822	      0.15528578	     12.72429942	     -5.27443365	     -5.49630359	    -66.20147194	     -4.37135108	    -12.43419340	      0.00000000	     18.26642611	      6.68009326	     -3.06925877	    -33.37938019	     19.63999044	    -16.48325013	      0.00000000	    -25.93387922	     -6.37888269	      0.67475660
      6.01000000	     -0.72991752	      1.48981341	     -3.22396860	     -0.38165881	      0.93313333	      0.15426660	     14.23990971	     -5.06964534	     -5.99016850	    -65.83661650	     -3.50102119	    -12.87704267	      0.00000000	     16.30924281	      6.43719218	     -2.61732866	    -31.69945488	     19.33399118	    -16.60307604	      0.00000000	    -26.33992521	     -5.60104152	      0.27132370
      6.02000000	     -0.63922239	      1.09612649	     -3.12832441	     -0.36951990	      0.93736365	      0.15346012	     15.78410073	     -4.84385248	     -6.45306215	    -65.14037400	     -2.51281348	    -13.01246378	      0.00000000	     14.47049912	      6.18702683	     -2.19359767	    -30.01013317	     19.04274077	    -16.54731098	      0.00000000	    -26.59471456	     -4.91606778	     -0.03778575
      6.03000000	     -0.65689505	      0.70505427	     -2.97337018	     -0.35742831	      0.94121197	      0.15265112	     17.33769504	     -4.58635411	     -6.96414276	    -64.09893523	     -1.64420120	    -12.99430376	      0.00000000	     12.76619908	      5.92468807	     -1.76076841	    -28.31691229	     18.63194528	    -16.59991826	      0.00000000	    -26.69848046	     -4.20694438	     -0.39650179
      6.04000000	     -0.70170053	      0.36860904	     -2.74365345	     -0.34532535	      0.94472548	      0.15185922	     18.79601131	     -4.36941287	     -7.54153888	    -62.71789932	     -0.84570460	    -12.91465808	      0.00000000	     11.10914427	      5.70986358	     -1.26726221	    -26.63230012	     18.13382846	    -16.67452932	      0.00000000	    -26.74203893	     -3.55326766	     -0.77909611
      6.05000000	     -0.75583370	      0.09809396	     -2.43344233	     -0.33318830	      0.94789764	      0.15108631	     20.13321676	     -4.21399208	     -8.18789249	    -61.00605176	     -0.16933702	    -12.83864475	      0.00000000	      9.48669123	      5.54776096	     -0.74288276	    -24.96818893	     17.55819534	    -16.77093812	      0.00000000	    -26.74554382	     -2.96480509	     -1.21419437
      6.06000000	     -0.84003893	     -0.12235237	     -2.07853783	     -0.32101804	      0.95067379	      0.15039308	     21.37264697	     -4.09120214	     -8.86703468	    -58.97119762	      0.35486359	    -12.79690578	      0.00000000	      7.93009023	      5.40598624	     -0.25606252	    -23.34588805	     16.95467549	    -16.85529428	      0.00000000	    -26.68338262	     -2.44012913	     -1.65903965
      6.07000000	     -0.95765754	     -0.29325756	     -1.68306170	     -0.30880185	      0.95302339	      0.14977820	     22.50868780	     -4.00438262	     -9.58012685	    -56.61679254	      0.73471270	    -12.78593298	      0.00000000	      6.44564103	      5.28407333	      0.17441411	    -21.77477021	     16.35003257	    -16.92291037	      0.00000000	    -26.55284225	     -1.97807292	     -2.11924232
      6.08000000	     -1.08694554	     -0.40949195	     -1.24147611	     -0.29651467	      0.95495732	      0.14923201	     23.50483855	     -3.96851813	    -10.34523081	    -53.94328802	      0.99082725	    -12.77832400	      0.00000000	      5.00693324	      5.18955305	      0.53282633	    -20.25255520	     15.76247281	    -16.97420012	      0.00000000	    -26.38271739	     -1.58522219	     -2.61466964
      6.09000000	     -1.22264416	     -0.48083143	     -0.77354682	     -0.28413279	      0.95646750	      0.14878496	     24.34732766	     -3.96671024	    -11.15483208	    -50.95442822	      1.15474567	    -12.70750440	      0.00000000	      3.60341747	      5.11154986	      0.80998044	    -18.78235760	     15.20890383	    -16.99931371	      0.00000000	    -26.18022583	     -1.26274997	     -3.13255099
      6.10000000	     -1.24796363	     -0.46085161	     -0.23448410	     -0.27163058	      0.95768316	      0.14830694	     24.90219207	     -4.08423491	    -12.08214648	    -47.67374452	      1.29145872	    -12.51109615	      0.00000000	      2.08922382	      5.10806941	      1.01644560	    -17.32276757	     14.66448854	    -16.99765283	      0.00000000	    -26.09443982	     -1.02637394	     -3.77109861
      6.11000000	     -1.26237772	     -0.38482280	      0.29749937	     -0.25895461	      0.95842938	      0.14796507	     25.28629465	     -4.22563802	    -13.03570858	    -44.12538120	      1.42970483	    -12.08668064	      0.00000000	      0.55981046	      5.13389337	      1.18937511	    -15.88905323	     14.22369716	    -16.93031719	      0.00000000	    -25.98256623	     -0.88048266	     -4.37743951
      6.12000000	     -1.19603552	     -0.21469137	      0.84220733	     -0.24610944	      0.95881779	      0.14776763	     25.42821491	     -4.43460361	    -14.05426873	    -40.34631148	      1.64287655	    -11.33736987	      0.00000000	     -1.06914403	      5.22019725	      1.28694165	    -14.45802877	     13.79654652	    -16.75423013	      0.00000000	    -25.95513430	     -0.87440847	     -5.04062681
      6.13000000	     -1.06097533	      0.05219406	      1.39291701	     -0.23303072	      0.95879073	      0.14768121	     25.35554474	     -4.70123044	    -15.12636323	    -36.39155676	      1.94628137	    -10.22321291	      0.00000000	     -2.80074830	      5.37152524	      1.34174971	    -13.02065967	     13.43892328	    -16.45509668	      0.00000000	    -25.96743853	     -0.99446190	     -5.74046685
      6.14000000	     -0.83602564	      0.37431894	      1.93496521	     -0.21966565	      0.95839906	      0.14774028	     25.05726331	     -4.96327452	    -16.25309536	    -32.30798383	      2.33213250	     -8.70945159	      0.00000000	     -4.67303515	      5.53774760	      1.38254442	    -11.56034798	     13.14741957	    -16.03589004	      0.00000000	    -26.04159140	     -1.20071646	     -6.43991046
      6.15000000	     -0.62942731	      0.84249939	      2.52085482	     -0.20622467	      0.95750013	      0.14790353	     24.71734514	     -5.33521542	    -17.39704307	    -28.24931145	      2.87290797	     -6.73720426	      0.00000000	     -6.50560823	      5.80619195	      1.39197408	    -10.18696116	     12.90547933	    -15.38198322	      0.00000000	    -26.09506780	     -1.58253947	     -7.29492570
      6.16000000	     -0.37622366	      1.34936695	      3.08067311	     -0.19255078	      0.95622557	      0.14821958	     24.27637706	     -5.67020699	    -18.49761729	    -24.24992114	      3.48021755	     -4.42339647	      0.00000000	     -8.40772606	      6.06975015	      1.41148883	     -8.84270551	     12.73046789	    -14.60918117	      0.00000000	    -26.16294699	     -2.03145554	     -8.12432945
      6.17000000	     -0.14257499	      1.89807982	      3.60325223	     -0.17873334	      0.95452212	      0.14869420	     23.86702043	     -5.97822842	    -19.47725794	    -20.43713561	      4.09410417	     -1.91159667	      0.00000000	    -10.28172583	      6.33934278	      1.43978813	     -7.56622632	     12.62300501	    -13.72804782	      0.00000000	    -26.18616854	     -2.56031363	     -8.97267296
      6.18000000	      0.08115975	      2.41960060	      4.09752259	     -0.16479152	      0.95251928	      0.14929430	     23.47390957	     -6.18434149	    -20.14000565	    -16.83402114	      4.65248743	      0.63110649	      0.00000000	    -12.09202355	      6.54861937	      1.46544216	     -6.42700625	     12.52872261	    -12.83173381	      0.00000000	    -26.18128504	     -3.07870330	     -9.75916721
